Coordinates
version=1
nRows=6
nColumns=34
inDegrees=yes

Units are S.I. units (second, meters, Newtons, ...)
If the header above contains a line with 'inDegrees', this indicates whether rotational values are in degrees (yes) or radians (no).

endheader
time	pelvis_tilt	pelvis_list	pelvis_rotation	pelvis_tx	pelvis_ty	pelvis_tz	hip_flexion_r	hip_adduction_r	hip_rotation_r	knee_angle_r	ankle_angle_r	subtalar_angle_r	mtp_angle_r	hip_flexion_l	hip_adduction_l	hip_rotation_l	knee_angle_l	ankle_angle_l	subtalar_angle_l	mtp_angle_l	lumbar_extension	lumbar_bending	lumbar_rotation	arm_flex_r	arm_add_r	arm_rot_r	elbow_flex_r	pro_sup_r	arm_flex_l	arm_add_l	arm_rot_l	elbow_flex_l	pro_sup_l
      6.61666670	     -5.85621246	     -0.06524805	      1.00251492	     -0.53601818	      0.96377527	     -0.16660940	      9.77773832	     -1.13541179	     -7.59975892	      5.17046597	      3.28627518	     -1.16801570	      0.00000000	     12.21313761	     -1.76119700	     -8.28773091	     10.53813590	      7.74538048	      5.19153468	      0.00000000	    -13.08622030	      1.28730020	     -1.68475630	      1.35821581	     -5.73800229	     -0.53905196	     25.85239434	     98.62113287	     -1.20596079	     -9.06488594	      8.95947150	     27.02652793	     98.89832841
      6.63333330	     -5.44900342	      0.08268308	      0.92993620	     -0.53024729	      0.96614898	     -0.16546795	      7.84931545	     -0.99856459	     -7.27797314	      2.45620053	      1.94845442	     -0.72324479	      0.00000000	     10.21472518	     -1.29453434	     -7.58176727	      7.40360111	      6.56414865	      5.24520662	      0.00000000	    -12.76195295	      1.09118151	     -1.80278116	      1.16062312	     -5.69244754	     -0.15066120	     25.77179749	     98.56508885	     -1.66979344	     -9.05074058	      8.94897540	     27.07142450	     98.79569385
      6.65000000	     -5.55598445	      0.22741141	      0.85178434	     -0.52422421	      0.96985372	     -0.16442325	      6.50620097	     -0.88460425	     -6.96434239	      0.15415489	      1.08581380	     -0.06009369	      0.00000000	      8.92772523	     -0.97407557	     -7.29893971	      5.08041061	      5.73817647	      5.48145977	      0.00000000	    -11.63270118	      0.80769026	     -1.87208603	      0.66014879	     -5.57072759	      0.03949445	     25.71958597	     98.53839896	     -2.29165722	     -9.01392373	      8.93536972	     27.01430807	     98.73512687
      6.66666670	     -5.61972544	      0.38200786	      0.40375020	     -0.51742122	      0.96470981	     -0.16250730	      6.07822067	     -0.89425205	     -6.68453036	      0.00000000	      1.81360386	      0.40114908	      0.00000000	      7.60869558	     -0.76128226	     -7.36518254	      3.10300674	      5.10552851	      5.42609046	      0.00000000	    -10.78448938	      0.53494638	     -1.66707535	      0.20669918	     -5.49161293	      0.23718424	     25.62549852	     98.50889956	     -2.89619446	     -8.98297891	      8.91109450	     27.03045323	     98.66180279
      6.68333330	     -5.80992798	      0.50529915	     -0.03699247	     -0.51964529	      0.96452105	     -0.16155949	      5.99123636	     -0.90019373	     -6.42958991	      0.00000000	      2.57585295	      0.90570245	      0.00000000	      6.71765680	     -0.56954695	     -7.46909538	      1.49629651	      4.56683369	      5.24256975	      0.00000000	     -9.88579128	      0.35627036	     -1.42130581	     -0.16387394	     -5.50589675	      0.39229507	     25.60361644	     98.47680164	     -3.30752066	     -8.89115178	      8.90734218	     27.10701268	     98.59900976
      6.70000000	     -5.91588154	      0.54649658	     -0.32228840	     -0.51777984	      0.96461614	     -0.16066662	      5.89369068	     -0.83898332	     -6.22916168	      0.00000000	      3.12895138	      1.30561339	      0.00000000	      5.90939296	     -0.46453877	     -7.46506157	      0.14289503	      4.02923242	      5.12762952	      0.00000000	     -9.14548225	      0.27718944	     -1.25412372	     -0.55296617	     -5.52818120	      0.51409487	     25.53916080	     98.43737211	     -3.62373586	     -8.79605549	      8.92878229	     27.17680223	     98.54630439
